<svg width="48" height="48" viewBox="0 0 48 48" fill="none" xmlns="http://www.w3.org/2000/svg">
<rect width="48" height="48" fill="black"/>
<path d="M15.3492 35.4668C14.5758 35.4668 13.9039 35.2949 13.3336 34.9512C12.7711 34.6152 12.3141 34.1895 11.9625 33.6738C11.5875 33.1348 11.3141 32.541 11.1422 31.8926C10.9781 31.252 10.8961 30.623 10.8961 30.0059V28.0957C10.8961 27.0566 10.6539 26.3105 10.1696 25.8574C9.68518 25.4043 8.9469 25.1777 7.95471 25.1777V22.834C8.9469 22.834 9.68518 22.6074 10.1696 22.1543C10.6539 21.7012 10.8961 20.9473 10.8961 19.8926V17.9824C10.8961 17.3184 10.9899 16.6348 11.1774 15.9316C11.3649 15.2207 11.6617 14.6035 12.068 14.0801C12.4039 13.627 12.8453 13.2559 13.3922 12.9668C13.9391 12.6777 14.5914 12.5332 15.3492 12.5332L15.7477 14.373C15.2711 14.3574 14.9039 14.459 14.6461 14.6777C14.3883 14.8887 14.2008 15.1699 14.0836 15.5215C13.9664 15.873 13.8961 16.2676 13.8727 16.7051C13.8571 17.1348 13.8492 17.5605 13.8492 17.9824V19.8926C13.8492 20.8223 13.6188 21.6465 13.1578 22.3652C12.7047 23.084 11.9977 23.6309 11.0367 24.0059C12.0055 24.3809 12.7164 24.9238 13.1696 25.6348C13.6227 26.3457 13.8492 27.166 13.8492 28.0957V30.0059C13.8492 30.4277 13.8727 30.8535 13.9196 31.2832C13.9742 31.7207 14.0719 32.1152 14.2125 32.4668C14.3531 32.8184 14.5446 33.0996 14.7867 33.3105C15.0367 33.5293 15.3571 33.6309 15.7477 33.6152L15.3492 35.4668Z" fill="white"/>
<path d="M26.2735 27.6855H21.1524L20.1446 31.248H16.6758L22.2656 14.1855H25.2539L30.7383 31.248H27.2696L26.2735 27.6855ZM21.961 24.8848H25.5L23.7539 18.6035L21.961 24.8848Z" fill="white"/>
<path d="M32.2524 33.6152C32.6352 33.6309 32.9477 33.5293 33.1899 33.3105C33.4399 33.0996 33.6352 32.8184 33.7758 32.4668C33.9164 32.1152 34.0141 31.7207 34.0688 31.2832C34.1235 30.8535 34.1508 30.4277 34.1508 30.0059V28.0957C34.1508 27.6426 34.2016 27.2129 34.3032 26.8066C34.4125 26.4004 34.5766 26.0215 34.7953 25.6699C35.0141 25.3184 35.2875 25.0059 35.6157 24.7324C35.9516 24.4512 36.35 24.2129 36.811 24.0176C36.436 23.8613 36.1039 23.6738 35.8149 23.4551C35.5258 23.2363 35.2758 22.9941 35.0649 22.7285C34.7524 22.3379 34.5219 21.9043 34.3735 21.4277C34.225 20.9434 34.1508 20.4316 34.1508 19.8926V17.9824C34.1508 17.5605 34.1391 17.1348 34.1157 16.7051C34.1 16.2676 34.0336 15.873 33.9164 15.5215C33.7992 15.1699 33.6117 14.8887 33.3539 14.6777C33.0961 14.459 32.7289 14.3574 32.2524 14.373L32.6508 12.5332C33.4867 12.5332 34.1899 12.7051 34.7602 13.0488C35.3305 13.3848 35.7953 13.8379 36.1547 14.4082C36.4985 14.9238 36.7407 15.502 36.8813 16.1426C37.0297 16.7754 37.1039 17.3887 37.1039 17.9824V19.8926C37.1039 20.3301 37.143 20.7168 37.2211 21.0527C37.3071 21.3887 37.436 21.6738 37.6078 21.9082C37.8344 22.2285 38.1508 22.4629 38.5571 22.6113C38.9711 22.7598 39.4672 22.834 40.0453 22.834V25.1777C39.3969 25.1777 38.8578 25.2715 38.4282 25.459C37.9985 25.6387 37.6742 25.9316 37.4555 26.3379C37.3383 26.5566 37.2485 26.8145 37.186 27.1113C37.1313 27.4004 37.1039 27.7285 37.1039 28.0957V30.0059C37.1039 30.6152 37.0141 31.248 36.8344 31.9043C36.6547 32.5605 36.3891 33.1465 36.0375 33.6621C35.686 34.2012 35.225 34.6348 34.6547 34.9629C34.0922 35.2988 33.4242 35.4668 32.6508 35.4668L32.2524 33.6152Z" fill="white"/>
</svg>
