<svg width="274" height="264" viewBox="0 0 274 264" fill="none" xmlns="http://www.w3.org/2000/svg">
<path d="M26.5996 0L27.5678 1.36685C32.5253 8.58911 33.6969 16.4124 34.8395 23.9739C35.9433 31.361 36.9987 38.3409 41.2494 44.933C45.1224 49.0143 49.8862 50.5654 54.9309 52.2134C56.8674 52.8532 58.9008 53.5125 60.8857 54.3365C70.2004 58.2142 77.1525 63.0613 84.734 69.1978C94.1261 78.2717 102.676 88.3731 110.945 98.1547C115.786 103.865 120.715 109.701 125.846 115.372C126.233 108.505 127.257 101.69 128.906 95.0137C135.51 80.2105 137.146 63.6624 138.715 47.6668C138.995 44.7585 139.286 41.8502 139.596 39.0389L139.683 38.1761L140.37 38.7093C154.807 49.7995 166.997 56.033 181.134 59.5423C182.461 59.8234 183.816 60.0755 185.162 60.3372C195.677 62.3536 205.612 64.2634 211.305 74.7236C218.083 86.4052 219.351 100.52 220.542 114.17C220.755 116.516 220.959 118.833 221.181 121.101C221.346 122.41 221.511 123.738 221.665 125.076C223.137 137.291 224.657 149.922 231.416 160.489C235.541 165.336 240.711 169.572 245.707 173.634C247.644 175.215 249.668 176.843 251.575 178.482C259.053 185 265.992 192.113 272.325 199.751L274 201.758L271.715 200.488C257.297 192.451 242.222 186.557 222.856 181.37C206.309 175.961 195.213 169.737 184.571 159.907C176.515 153.315 167.482 147.683 158.748 142.244C150.547 137.126 142.055 131.842 134.319 125.716C131.704 123.117 129.158 120.442 126.66 117.727C126.311 123.796 126.253 129.933 126.185 135.972C126.108 143.194 126.021 150.659 125.459 157.736C125.265 158.812 125.072 159.839 124.888 160.886C122.545 173.886 119.892 188.612 104.002 191.966C90.4467 195.505 81.6259 201.312 76.2326 210.24C71.2558 219.876 66.6275 229.91 62.1444 239.614C60.7889 242.561 59.4268 245.505 58.0584 248.445C52.152 257.858 46.0713 267.533 31.712 262.725L31.4603 262.638L31.4022 262.376C30.8503 260.011 30.279 257.781 29.7367 255.59C27.6937 247.573 25.9218 240.651 26.5512 232.246C27.3742 225.16 25.0116 216.028 22.9202 208.01C22.194 205.209 21.5065 202.552 20.9837 200.255L11.9304 156.902C10.2069 148.497 8.71579 139.908 7.27307 131.6C6.0918 124.814 4.8718 117.737 3.52591 110.835L3.42908 110.321C-0.318085 91.3493 -2.1965 81.8295 4.2037 62.945C6.27579 58.2433 8.72549 53.4446 11.3107 48.4036C18.747 33.8621 27.1709 17.3237 26.648 1.74496L26.5996 0ZM125.72 116.71C120.347 110.815 115.195 104.727 110.161 98.7848C101.911 89.0226 93.3806 78.9309 84.0175 69.9249C76.5328 63.8659 69.6485 59.0382 60.4403 55.2283C58.5038 54.4237 56.4898 53.7645 54.5533 53.1344C49.3828 51.4476 44.5027 49.8577 40.4167 45.5244C35.9917 38.6899 34.8782 31.2834 33.8034 24.1194C32.7577 17.1492 31.6733 9.96571 27.6066 3.31543C27.5 18.6324 19.357 34.5989 12.1144 48.7525C9.52911 53.8227 7.07944 58.6116 5.03641 63.2455C-1.267 81.8392 0.601746 91.2814 4.31021 110.079L4.40704 110.602C5.7626 117.514 6.9826 124.562 8.16388 131.387C9.59692 139.685 11.0687 148.264 12.8115 156.65L21.9519 200.013C22.4361 202.32 23.1235 204.966 23.8884 207.768C25.9993 215.902 28.3812 225.111 27.5485 232.372C26.9288 240.593 28.6813 247.447 30.6953 255.377C31.2279 257.461 31.7798 259.603 32.3123 261.882C45.7615 266.254 51.6001 256.957 57.2354 247.97C58.5812 245.062 59.9368 242.154 61.302 239.245C65.7851 229.551 70.4231 219.488 75.4096 209.804C80.9578 200.614 89.9335 194.671 103.809 191.065C119.078 187.837 121.567 174.071 123.968 160.751C124.152 159.713 124.336 158.676 124.53 157.649C125.081 150.649 125.169 143.204 125.246 136.001C125.256 129.584 125.323 123.117 125.72 116.71ZM269.885 198.374C264.061 191.531 257.73 185.137 250.946 179.247C249.009 177.609 247.073 175.98 245.136 174.4C240.101 170.309 234.892 166.083 230.67 161.071C223.767 150.271 222.227 137.523 220.746 125.202C220.581 123.864 220.426 122.545 220.262 121.217C220.029 118.939 219.826 116.613 219.622 114.267C218.431 100.695 217.211 86.7154 210.501 75.218C204.982 65.1359 195.261 63.2746 184.978 61.297C183.622 61.0449 182.267 60.7832 180.921 60.502C166.852 57.0024 154.72 50.8562 140.467 40.0083C140.186 42.5773 139.935 45.1754 139.683 47.7637C138.095 63.8369 136.458 80.4626 129.816 95.3336C128.116 102.235 127.075 109.282 126.708 116.38C129.39 119.288 132.13 122.197 134.929 124.998C142.588 131.047 151.05 136.321 159.232 141.42C167.995 146.878 177.048 152.53 185.172 159.18C195.735 168.923 206.716 175.079 223.118 180.44C241.534 185.355 256.087 190.929 269.885 198.374Z" fill="#F5F5F5" fill-opacity="0.2"/>
<path d="M40.3489 45.1366L41.3172 45.2529C39.9906 55.6065 39.4484 59.8816 41.5689 71.0398C43.5829 81.7713 43.9024 92.8907 44.2122 103.632C44.2607 105.406 44.3091 107.18 44.3672 108.944C44.4253 111.329 44.4834 113.724 44.5318 116.109C44.7932 127.684 45.0643 139.666 45.9261 151.405C47.1364 162.069 48.5016 172.898 49.9056 183.939L54.0014 216.047C55.5022 227.447 56.8093 237.675 57.9906 247.292L57.0224 247.408C55.8314 237.791 54.5339 227.573 53.0331 216.173L48.9374 184.056C47.5334 173.014 46.1681 162.215 44.9481 151.493C44.0864 139.704 43.8153 127.722 43.5538 116.128C43.5087 113.743 43.4538 111.358 43.3892 108.974C43.3312 107.209 43.2827 105.435 43.2343 103.661C42.9245 92.9489 42.6049 81.878 40.6103 71.2143C38.4124 59.9107 38.9933 55.5871 40.3489 45.1366Z" fill="#F5F5F5" fill-opacity="0.2"/>
<path d="M84.8889 69.5565C85.0244 73.5893 84.8889 76.546 84.6758 80.2977C84.5112 83.5162 84.3273 87.1613 84.2595 92.4931C84.182 100.578 84.1723 108.799 84.1723 116.729V126.375C84.1046 135.778 84.0368 145.511 83.6301 155.079V155.157C83.175 165.627 83.0104 169.156 82.1293 176.417C81.5808 180.977 80.802 185.507 79.7958 189.989C79.5925 190.958 79.3795 191.927 79.1471 193.071L78.8276 194.613C77.7321 199.507 76.911 204.459 76.3682 209.445L75.3999 209.338C75.9454 204.32 76.7697 199.336 77.869 194.409L78.111 192.965C78.3434 191.84 78.5564 190.822 78.7598 189.872C79.7623 185.41 80.5379 180.9 81.0836 176.358C81.9647 169.136 82.1196 165.617 82.5747 155.167V155.06C82.9814 145.511 83.0492 135.798 83.1169 126.394V116.748C83.1169 108.799 83.1169 100.578 83.2041 92.5125C83.2719 87.1613 83.4558 83.5065 83.6301 80.2783C83.8141 76.546 83.969 73.6087 83.8335 69.6146L84.8889 69.5565Z" fill="#F5F5F5" fill-opacity="0.2"/>
<path d="M134.106 125.289L135.074 125.347C134.89 128.091 134.754 130.34 134.628 132.453C134.406 136.098 134.212 139.239 133.854 143.795C133.492 149.528 132.82 155.237 131.84 160.896C131.159 165.746 129.904 170.497 128.102 175.05C126.166 180.042 124.926 182.098 122.128 185.083C119.33 188.069 117.393 188.961 113.685 190.037C110.968 190.809 108.198 191.376 105.397 191.734L104.206 191.908L104.06 190.939L105.251 190.764C108.012 190.42 110.741 189.859 113.414 189.087C117.016 188.05 118.642 187.381 121.421 184.405C124.2 181.429 125.294 179.558 127.231 174.71C129.009 170.214 130.244 165.521 130.91 160.731C131.892 155.105 132.562 149.428 132.915 143.728C133.273 139.191 133.467 136.05 133.689 132.405C133.786 130.282 133.922 128.013 134.106 125.289Z" fill="#F5F5F5" fill-opacity="0.2"/>
<path d="M125.556 157.532C129.639 160.433 133.953 162.994 138.453 165.191C143.556 167.701 145.957 168.526 150.159 169.233C153.449 169.878 156.833 169.878 160.123 169.233C163.196 168.814 166.197 167.972 169.04 166.732C171.695 165.667 174.282 164.44 176.787 163.058L177.048 162.922L179.285 161.739C181.037 160.77 182.432 160.062 184.591 159.044L184.997 159.927C182.858 160.896 181.483 161.662 179.74 162.593L177.503 163.775L177.232 163.921C174.689 165.323 172.059 166.563 169.36 167.634C166.448 168.901 163.376 169.763 160.229 170.193C156.833 170.836 153.346 170.819 149.956 170.144C145.647 169.417 143.178 168.574 137.988 166.015C133.446 163.79 129.094 161.196 124.975 158.259L125.556 157.532Z" fill="#F5F5F5" fill-opacity="0.2"/>
<path d="M130.107 95.198C135.616 99.9675 140.08 102.76 146.248 106.628L151.089 109.691L151.922 110.214C160.636 115.75 165.39 118.804 172.546 124.804C179.701 130.805 182.625 133.995 187.069 140.761C189.456 144.376 191.551 148.175 193.334 152.123C194.089 153.674 194.854 155.283 195.832 157.203C199.095 163.601 201.409 167.74 207.645 172.093C212.181 175.306 217.079 177.974 222.237 180.042L223.147 180.45L222.75 181.332L221.84 180.934C216.625 178.842 211.675 176.142 207.093 172.888C200.799 168.496 198.311 164.163 194.971 157.639C194.002 155.7 193.218 154.1 192.463 152.54C190.686 148.637 188.611 144.877 186.256 141.294C181.86 134.625 179.043 131.532 171.907 125.551C164.77 119.569 160.036 116.545 151.379 111.009L150.556 110.476C148.804 109.361 147.197 108.363 145.715 107.422C139.518 103.545 135.064 100.724 129.468 95.896L130.107 95.198Z" fill="#F5F5F5" fill-opacity="0.2"/>
<path d="M179.856 60.7929L180.66 61.3455C178.897 63.9306 177.148 66.4673 175.412 68.9555C166.262 82.1882 157.605 94.6841 151.292 110.282C148.194 120.17 146.228 130.427 144.33 140.335C142.733 148.691 141.077 157.329 138.744 165.743C134.183 177.153 129.061 190.037 113.753 190.037H113.549C111.613 190.037 109.58 190.037 107.585 190.037C97.9507 190.037 87.9873 189.969 78.7985 193.479C68.3219 197.948 61.2246 207.002 54.3596 215.775L53.8755 216.386C52.6167 217.879 51.3677 219.634 50.0024 221.485C44.4737 229.241 37.599 238.809 26.7642 232.711L27.2386 231.858C37.3472 237.539 43.6991 228.708 49.2472 220.923C50.5834 219.052 51.8518 217.278 53.1202 215.775L53.5947 215.174C60.5371 206.324 67.7119 197.162 78.4306 192.587C87.7937 189.029 97.8636 189.087 107.595 189.087C109.58 189.087 111.564 189.087 113.549 189.087H113.733C128.383 189.087 133.399 176.533 137.833 165.452C140.138 157.125 141.784 148.507 143.382 140.17C145.318 130.223 147.255 119.928 150.382 109.953C156.753 94.2188 165.429 81.6841 174.589 68.4029C176.338 65.9082 178.094 63.3716 179.856 60.7929Z" fill="#F5F5F5" fill-opacity="0.2"/>
<path d="M209.436 75.6639L210.133 76.3425C195.851 91.2327 183.282 107.68 172.662 125.376C168.256 133.461 164.219 141.905 160.307 150.068C157.189 156.592 153.955 163.339 150.547 169.883C145.425 180.546 134.377 186.431 121.731 185.18C113.395 184.366 105.106 182.272 97.0793 180.333C91.9862 179.073 86.7189 177.784 81.5097 176.814C70.3225 174.998 58.8728 177.7 49.6732 184.327L21.7001 200.458L21.216 199.625L49.16 183.581C53.8109 180.227 59.0768 177.826 64.6561 176.513C70.2354 175.201 76.0185 175.003 81.6742 175.932C86.9222 176.901 92.1993 178.2 97.3117 179.451C105.3 181.39 113.559 183.455 121.828 184.298C134.057 185.5 144.727 179.848 149.685 169.534C153.093 162.98 156.318 156.243 159.435 149.719C163.308 141.546 167.394 133.103 171.819 124.969C182.484 107.182 195.101 90.6438 209.436 75.6639Z" fill="#F5F5F5" fill-opacity="0.2"/>
<path d="M219.71 120.936L219.913 121.906C205.999 124.814 196.413 132.792 186.992 141.401C183.884 144.745 180.785 148.274 177.794 151.696C172.323 157.93 166.668 164.376 160.539 170.115C150.605 179.936 140.593 178.482 127.521 175.35C118.422 171.929 109.502 168.047 100.797 163.717C94.9879 160.935 88.9459 158.065 82.904 155.516C69.3483 150.756 59.7819 148.885 45.4903 151.91C33.4452 153.945 22.6491 155.681 12.4533 157.232L12.308 156.262C22.4942 154.721 33.2903 152.976 45.3161 150.95C59.7238 147.896 69.7647 149.874 83.2429 154.605C89.3429 157.164 95.3752 160.043 101.214 162.835C109.802 166.926 118.642 171.162 127.793 174.41C140.506 177.454 150.285 178.889 159.871 169.408C165.981 163.669 171.616 157.241 177.067 150.989C180.069 147.567 183.167 144.028 186.314 140.645C195.861 131.959 205.563 123.903 219.71 120.936Z" fill="#F5F5F5" fill-opacity="0.2"/>
<path d="M37.0956 108.324C39.3516 108.324 41.6173 108.372 43.8734 108.479C60.5372 109.235 71.8755 115.973 83.9303 123.99C89.7399 128.323 95.4139 132.957 100.923 137.436C110.703 145.366 120.802 153.567 131.617 160.353C143.401 166.519 154.604 172.316 169.128 166.79C171.18 165.908 173.272 164.851 175.479 163.833C181.909 160.731 188.57 157.522 195.426 156.951H195.532C198.359 157.319 201.206 157.755 203.946 158.172C212.787 159.51 221.123 160.78 230.041 160.344V161.313C221.026 161.759 212.612 160.479 203.753 159.132C201.032 158.715 198.214 158.288 195.406 157.92C188.745 158.492 182.189 161.652 175.847 164.706C173.63 165.782 171.539 166.79 169.437 167.692C154.497 173.382 143.149 167.488 131.123 161.245C120.23 154.459 110.102 146.19 100.304 138.241C94.8039 133.771 89.1105 129.147 83.3591 124.843C71.0234 116.593 60.2563 110.205 43.825 109.458C33.329 108.954 22.6878 109.768 12.3952 110.563C9.60661 110.777 6.81801 111 4.02942 111.184L3.96165 110.214C6.75026 110.03 9.52914 109.817 12.3177 109.594C20.4414 108.964 28.7298 108.324 37.0956 108.324Z" fill="#F5F5F5" fill-opacity="0.2"/>
<path d="M4.95889 62.6736C14.3026 70.0509 25.9314 70.303 37.1826 70.5453L41.0557 70.6423C58.9976 69.9249 72.1465 80.8601 84.0658 92.1345C89.3235 97.6215 94.5231 103.254 99.558 108.702C110.354 120.403 121.508 132.502 133.67 143.398C147.226 153.402 159.89 160.567 177.397 162.922C187.079 163.417 195.91 167.149 204.508 170.746L207.597 172.045C218.112 174.4 228.898 175.67 239.404 176.892C242.977 177.309 246.569 177.735 250.181 178.2L250.055 179.17C246.453 178.705 242.861 178.288 239.288 177.861C228.792 176.64 217.986 175.36 207.335 173.014C206.222 172.558 205.186 172.122 204.159 171.686C195.668 168.118 186.886 164.425 177.368 163.93C159.619 161.555 146.848 154.323 133.118 144.193C120.889 133.238 109.715 121.13 98.9093 109.41C93.884 103.962 88.6941 98.3292 83.4171 92.8713C71.1783 81.2963 58.7264 70.9331 41.0944 71.6602L37.1632 71.5632C25.7571 71.3209 13.925 71.0591 4.36824 63.4782L4.95889 62.6736Z" fill="#F5F5F5" fill-opacity="0.2"/>
</svg>
