<svg width="483" height="465" viewBox="0 0 483 465" fill="none" xmlns="http://www.w3.org/2000/svg">
<path d="M436.111 465L434.404 462.592C425.665 449.871 423.6 436.092 421.586 422.773C419.64 409.762 417.78 397.468 410.287 385.857C403.459 378.668 395.062 375.936 386.169 373.033C382.756 371.906 379.171 370.745 375.672 369.294C359.253 362.464 346.998 353.926 333.633 343.118C317.077 327.135 302.006 309.343 287.429 292.114C278.895 282.057 270.208 271.777 261.161 261.788C260.48 273.883 258.674 285.887 255.768 297.646C244.127 323.72 241.243 352.867 238.478 381.041C237.983 386.164 237.471 391.287 236.924 396.238L236.771 397.758L235.559 396.819C210.11 377.285 188.621 366.306 163.702 360.124C161.363 359.629 158.974 359.185 156.601 358.724C138.065 355.173 120.553 351.809 110.517 333.385C98.5692 312.809 96.3332 287.948 94.2338 263.906C93.8583 259.774 93.4999 255.693 93.1073 251.697C92.8172 249.392 92.527 247.053 92.2539 244.696C89.6595 223.181 86.9798 200.933 75.0662 182.321C67.7951 173.783 58.6807 166.321 49.8734 159.167C46.4598 156.383 42.8925 153.515 39.5301 150.629C26.3481 139.148 14.1158 126.62 2.95281 113.166L0 109.632L4.02811 111.868C29.4427 126.024 56.018 136.405 90.1545 145.541C119.324 155.069 138.884 166.031 157.642 183.345C171.843 194.956 187.768 204.877 203.163 214.456C217.62 223.472 232.589 232.778 246.227 243.569C250.835 248.145 255.324 252.858 259.728 257.639C260.342 246.95 260.445 236.142 260.564 225.504C260.701 212.783 260.854 199.635 261.844 187.17C262.185 185.275 262.527 183.465 262.851 181.621C266.982 158.723 271.658 132.786 299.667 126.878C323.563 120.645 339.112 110.417 348.619 94.6908C357.392 77.7181 365.551 60.0453 373.453 42.9531C375.843 37.7622 378.244 32.5771 380.656 27.3976C391.068 10.8176 401.787 -6.22343 427.099 2.24586L427.543 2.39955L427.645 2.86056C428.618 7.02691 429.625 10.9542 430.581 14.8132C434.182 28.9343 437.306 41.126 436.196 55.9302C434.746 68.4121 438.91 84.497 442.597 98.6181C443.877 103.553 445.089 108.231 446.011 112.278L461.969 188.638C465.008 203.443 467.636 218.571 470.179 233.205C472.262 245.157 474.412 257.622 476.785 269.78L476.955 270.685C483.561 304.101 486.872 320.869 475.59 354.131C471.937 362.412 467.619 370.865 463.062 379.744C449.953 405.356 435.104 434.487 436.026 461.927L436.111 465ZM261.383 259.432C270.856 269.814 279.936 280.537 288.812 291.004C303.354 308.199 318.391 325.974 334.896 341.837C348.09 352.509 360.226 361.012 376.457 367.723C379.871 369.14 383.421 370.301 386.835 371.411C395.949 374.382 404.552 377.182 411.755 384.815C419.555 396.853 421.518 409.898 423.412 422.517C425.256 434.794 427.167 447.447 434.336 459.16C434.524 432.182 448.878 404.059 461.645 379.129C466.202 370.199 470.521 361.764 474.122 353.602C485.233 320.851 481.939 304.22 475.402 271.112L475.231 270.189C472.842 258.015 470.691 245.601 468.609 233.58C466.083 218.964 463.488 203.852 460.416 189.082L444.304 112.705C443.45 108.641 442.238 103.98 440.89 99.045C437.169 84.7189 432.97 68.4975 434.438 55.7082C435.531 41.2285 432.441 29.1563 428.891 15.1888C427.952 11.5177 426.979 7.74408 426.041 3.73141C402.333 -3.96949 392.041 12.4056 382.107 28.2343C379.735 33.3568 377.345 38.4794 374.938 43.6019C367.036 60.6771 358.86 78.4011 350.07 95.4592C340.29 111.646 324.468 122.114 300.009 128.466C273.092 134.152 268.706 158.398 264.473 181.86C264.148 183.687 263.824 185.514 263.483 187.324C262.51 199.652 262.356 212.766 262.22 225.453C262.203 236.756 262.083 248.145 261.383 259.432ZM7.25401 115.591C17.5201 127.644 28.6803 138.906 40.6395 149.28C44.0532 152.166 47.4668 155.034 50.8805 157.818C59.756 165.023 68.9387 172.468 76.3804 181.296C88.5501 200.318 91.264 222.772 93.8754 244.474C94.1656 246.831 94.4387 249.153 94.7288 251.492C95.1385 255.505 95.4969 259.603 95.8553 263.735C97.9547 287.64 100.105 312.263 111.934 332.514C121.663 350.272 138.799 353.55 156.926 357.034C159.315 357.478 161.705 357.939 164.077 358.434C188.877 364.598 210.264 375.424 235.388 394.531C235.883 390.006 236.327 385.43 236.771 380.871C239.57 352.56 242.455 323.276 254.163 297.083C257.16 284.928 258.995 272.515 259.642 260.013C254.914 254.89 250.084 249.768 245.151 244.833C231.65 234.178 216.733 224.889 202.31 215.908C186.863 206.294 170.904 196.339 156.584 184.626C137.963 167.465 118.607 156.622 89.6937 147.18C57.2299 138.523 31.5763 128.705 7.25401 115.591Z" fill="#F5F5F5" fill-opacity="0.2"/>
<path d="M411.874 385.498L410.167 385.293C412.506 367.057 413.461 359.527 409.723 339.873C406.173 320.971 405.61 301.386 405.064 282.466C404.978 279.342 404.893 276.217 404.791 273.109C404.688 268.909 404.586 264.691 404.5 260.491C404.04 240.103 403.562 218.998 402.043 198.32C399.909 179.537 397.503 160.464 395.028 141.016L387.808 84.4627C385.162 64.3823 382.858 46.368 380.776 29.4295L382.482 29.2245C384.582 46.1631 386.869 64.1604 389.515 84.2408L396.734 140.811C399.209 160.259 401.616 179.281 403.767 198.166C405.286 218.93 405.764 240.035 406.224 260.457C406.304 264.657 406.401 268.858 406.515 273.058C406.617 276.166 406.702 279.29 406.788 282.415C407.334 301.283 407.897 320.783 411.413 339.566C415.288 359.475 414.264 367.091 411.874 385.498Z" fill="#F5F5F5" fill-opacity="0.2"/>
<path d="M333.36 342.486C333.121 335.382 333.36 330.175 333.736 323.566C334.026 317.898 334.35 311.477 334.47 302.086C334.606 287.845 334.623 273.365 334.623 259.398V242.408C334.743 225.845 334.862 208.702 335.579 191.849V191.712C336.381 173.271 336.671 167.055 338.225 154.266C339.191 146.233 340.564 138.255 342.338 130.361C342.696 128.653 343.072 126.946 343.482 124.931L344.045 122.216C345.976 113.595 347.423 104.873 348.38 96.091L350.087 96.2789C349.125 105.118 347.672 113.897 345.735 122.575L345.308 125.119C344.898 127.1 344.523 128.892 344.164 130.566C342.397 138.426 341.03 146.37 340.068 154.369C338.515 167.09 338.242 173.288 337.439 191.695V191.883C336.723 208.702 336.603 225.811 336.484 242.374V259.364C336.484 273.365 336.484 287.845 336.33 302.052C336.211 311.477 335.886 317.915 335.579 323.601C335.255 330.175 334.982 335.348 335.221 342.383L333.36 342.486Z" fill="#F5F5F5" fill-opacity="0.2"/>
<path d="M246.602 244.321L244.895 244.218C245.22 239.386 245.459 235.424 245.681 231.702C246.073 225.282 246.414 219.749 247.046 211.724C247.684 201.627 248.869 191.572 250.596 181.603C251.796 173.062 254.008 164.693 257.185 156.674C260.598 147.88 262.783 144.26 267.716 139.001C272.648 133.742 276.062 132.171 282.599 130.276C287.388 128.916 292.272 127.917 297.21 127.287L299.309 126.98L299.565 128.687L297.466 128.995C292.6 129.601 287.789 130.589 283.077 131.949C276.728 133.776 273.86 134.954 268.962 140.196C264.063 145.438 262.134 148.734 258.721 157.271C255.587 165.191 253.409 173.457 252.235 181.894C250.504 191.804 249.324 201.803 248.702 211.844C248.07 219.835 247.729 225.367 247.336 231.787C247.165 235.527 246.927 239.522 246.602 244.321Z" fill="#F5F5F5" fill-opacity="0.2"/>
<path d="M261.673 187.529C254.476 182.419 246.872 177.908 238.939 174.039C229.944 169.617 225.711 168.165 218.303 166.919C212.504 165.784 206.539 165.784 200.74 166.919C195.322 167.658 190.033 169.14 185.02 171.324C180.34 173.2 175.78 175.361 171.365 177.796L170.904 178.035L166.962 180.118C163.872 181.825 161.415 183.072 157.608 184.865L156.891 183.311C160.664 181.604 163.087 180.255 166.159 178.615L170.102 176.532L170.58 176.276C175.063 173.806 179.698 171.622 184.457 169.736C189.59 167.503 195.006 165.986 200.552 165.228C206.538 164.096 212.686 164.125 218.661 165.314C226.257 166.594 230.609 168.08 239.758 172.588C247.764 176.507 255.437 181.076 262.698 186.248L261.673 187.529Z" fill="#F5F5F5" fill-opacity="0.2"/>
<path d="M253.651 297.322C243.939 288.921 236.071 284.003 225.199 277.19L216.664 271.794L215.197 270.872C199.835 261.122 191.455 255.744 178.841 245.174C166.228 234.605 161.073 228.987 153.239 217.068C149.032 210.702 145.339 204.01 142.196 197.056C140.864 194.324 139.516 191.49 137.792 188.109C132.04 176.839 127.961 169.548 116.969 161.882C108.973 156.222 100.339 151.523 91.2469 147.88L89.6425 147.163L90.3423 145.609L91.9467 146.309C101.139 149.993 109.864 154.75 117.942 160.481C129.036 168.216 133.423 175.849 139.311 187.341C141.018 190.756 142.4 193.573 143.732 196.322C146.864 203.196 150.522 209.818 154.673 216.129C162.421 227.877 167.388 233.324 179.968 243.859C192.547 254.395 200.893 259.722 216.152 269.472L217.603 270.411C220.693 272.375 223.526 274.134 226.137 275.79C237.061 282.62 244.912 287.589 254.778 296.092L253.651 297.322Z" fill="#F5F5F5" fill-opacity="0.2"/>
<path d="M165.955 357.922L164.538 356.948C167.644 352.395 170.728 347.927 173.789 343.544C189.918 320.237 205.177 298.227 216.306 270.753C221.768 253.336 225.233 235.271 228.578 217.82C231.394 203.101 234.313 187.887 238.426 173.066C246.466 152.968 255.495 130.276 282.48 130.276H282.838C286.252 130.276 289.836 130.276 293.352 130.276C310.335 130.276 327.898 130.395 344.096 124.214C362.564 116.342 375.075 100.394 387.176 84.941L388.03 83.8652C390.249 81.2356 392.45 78.145 394.857 74.8837C404.603 61.2235 416.721 44.3703 435.821 55.1106L434.984 56.6133C417.165 46.6072 405.968 62.1627 396.188 75.874C393.833 79.1695 391.597 82.2943 389.361 84.941L388.525 85.9996C376.287 101.589 363.639 117.725 344.745 125.785C328.24 132.051 310.489 131.949 293.335 131.949C289.836 131.949 286.337 131.949 282.838 131.949H282.514C256.689 131.949 247.848 154.061 240.031 173.578C235.969 188.246 233.067 203.426 230.251 218.11C226.837 235.629 223.423 253.763 217.91 271.333C206.679 299.046 191.386 321.125 175.24 344.518C172.156 348.912 169.061 353.38 165.955 357.922Z" fill="#F5F5F5" fill-opacity="0.2"/>
<path d="M113.811 331.728L112.582 330.533C137.759 304.306 159.916 275.336 178.636 244.167C186.402 229.926 193.52 215.054 200.415 200.676C205.911 189.185 211.612 177.301 217.62 165.775C226.649 146.992 246.124 136.627 268.415 138.83C283.111 140.264 297.722 143.953 311.871 147.368C320.849 149.588 330.134 151.859 339.317 153.566C359.037 156.764 379.221 152.005 395.437 140.333L444.748 111.92L445.601 113.388L396.342 141.648C388.144 147.554 378.861 151.784 369.026 154.096C359.191 156.408 348.997 156.756 339.027 155.12C329.776 153.412 320.474 151.124 311.462 148.922C297.38 145.507 282.821 141.87 268.245 140.384C246.688 138.267 227.878 148.221 219.139 166.389C213.131 177.932 207.448 189.8 201.952 201.291C195.124 215.685 187.921 230.558 180.121 244.884C161.323 276.214 139.081 305.343 113.811 331.728Z" fill="#F5F5F5" fill-opacity="0.2"/>
<path d="M95.7017 251.987L95.3433 250.28C119.87 245.157 136.768 231.104 153.375 215.942C158.854 210.051 164.316 203.835 169.59 197.808C179.234 186.828 189.202 175.473 200.006 165.365C217.518 148.068 235.166 150.629 258.209 156.144C274.249 162.17 289.972 169.009 305.317 176.634C315.558 181.535 326.208 186.589 336.859 191.08C360.755 199.464 377.618 202.76 402.811 197.432C424.044 193.846 443.075 190.79 461.048 188.058L461.304 189.765C443.348 192.48 424.317 195.554 403.118 199.122C377.72 204.501 360.021 201.018 336.262 192.685C325.509 188.177 314.875 183.106 304.583 178.188C289.443 170.983 273.86 163.521 257.731 157.801C235.32 152.439 218.081 149.912 201.183 166.611C190.413 176.72 180.48 188.041 170.87 199.054C165.579 205.082 160.117 211.314 154.57 217.273C137.741 232.573 120.638 246.762 95.7017 251.987Z" fill="#F5F5F5" fill-opacity="0.2"/>
<path d="M417.609 274.202C413.632 274.202 409.638 274.117 405.661 273.929C376.287 272.597 356.3 260.73 335.05 246.609C324.809 238.976 314.807 230.814 305.095 222.925C287.856 208.958 270.054 194.512 250.989 182.56C230.217 171.7 210.469 161.489 184.866 171.222C181.248 172.776 177.561 174.637 173.669 176.43C162.336 181.894 150.593 187.546 138.509 188.553H138.321C133.337 187.904 128.319 187.136 123.489 186.402C107.906 184.045 93.2097 181.808 77.4899 182.577V180.869C93.3804 180.084 108.213 182.338 123.83 184.711C128.626 185.445 133.593 186.197 138.543 186.846C150.286 185.838 161.841 180.272 173.021 174.893C176.93 172.998 180.616 171.222 184.32 169.634C210.656 159.611 230.66 169.992 251.859 180.989C271.061 192.941 288.914 207.507 306.187 221.508C315.882 229.38 325.918 237.525 336.057 245.106C357.802 259.637 376.782 270.89 405.747 272.204C424.249 273.092 443.007 271.658 461.15 270.258C466.066 269.882 470.981 269.489 475.897 269.165L476.017 270.872C471.101 271.197 466.202 271.573 461.287 271.965C446.966 273.075 432.356 274.202 417.609 274.202Z" fill="#F5F5F5" fill-opacity="0.2"/>
<path d="M474.259 354.609C457.788 341.615 437.289 341.171 417.455 340.744L410.628 340.573C379.001 341.837 355.822 322.576 334.811 302.718C325.543 293.053 316.377 283.132 307.502 273.536C288.471 252.926 268.808 231.617 247.37 212.424C223.475 194.803 201.149 182.184 170.29 178.035C153.222 177.164 137.655 170.59 122.499 164.255L117.054 161.967C98.518 157.818 79.5039 155.581 60.9849 153.429C54.6867 152.695 48.3544 151.944 41.9879 151.124L42.2098 149.417C48.5592 150.236 54.8915 150.971 61.1897 151.722C79.6917 153.873 98.7399 156.127 117.515 160.259C119.478 161.062 121.304 161.83 123.113 162.599C138.082 168.882 153.563 175.388 170.341 176.259C201.627 180.442 224.14 193.18 248.343 211.024C269.9 230.319 289.597 251.646 308.645 272.29C317.504 281.886 326.652 291.807 335.955 301.42C357.529 321.808 379.479 340.061 410.56 338.78L417.49 338.951C437.596 339.378 458.453 339.839 475.3 353.192L474.259 354.609Z" fill="#F5F5F5" fill-opacity="0.2"/>
</svg>
