<svg width="252" height="252" viewBox="0 0 252 252" fill="none" xmlns="http://www.w3.org/2000/svg">
<circle cx="126" cy="126" r="125.5" fill="url(#paint0_linear_1022_857)" stroke="white"/>
<path d="M77.0649 155.619C77.0649 156.591 76.7799 157.362 76.21 157.932C75.6735 158.502 75.0365 158.787 74.2988 158.787C73.5947 158.787 72.4045 158.284 70.728 157.278C69.0516 156.239 66.7884 154.898 63.9385 153.255C61.0885 151.612 58.3392 150.053 55.6904 148.578C49.957 145.392 45.9839 143.297 43.771 142.291C41.5916 141.252 40.2673 140.564 39.7979 140.229C39.3285 139.86 39.0938 139.324 39.0938 138.62C39.0938 137.916 39.3117 137.396 39.7476 137.061C40.1834 136.692 41.2731 136.139 43.0166 135.401C44.7601 134.663 47.0736 133.574 49.957 132.132C52.8405 130.657 55.6401 129.148 58.356 127.605C63.8211 124.554 68.314 121.755 71.8345 119.207C72.6056 118.637 73.3433 118.352 74.0474 118.352C74.785 118.352 75.4723 118.586 76.1094 119.056C76.7799 119.525 77.1152 120.162 77.1152 120.967C77.1152 122.341 76.4447 123.381 75.1035 124.085C73.7624 124.789 72.3542 125.51 70.8789 126.248C69.4036 126.952 67.7775 127.74 66.0005 128.611C64.257 129.483 62.4129 130.405 60.4683 131.377C58.5571 132.316 56.6292 133.305 54.6846 134.345C51.7005 135.887 48.9847 137.346 46.5371 138.72C59.7474 146.13 69.236 150.975 75.0029 153.255C76.3776 153.825 77.0649 154.613 77.0649 155.619ZM107.492 79.4751C108.297 79.4751 109.035 79.8104 109.705 80.481C110.376 81.1515 110.895 82.5597 111.264 84.7056C111.667 86.8179 112.253 89.8522 113.024 93.8086C113.829 97.765 114.718 101.99 115.69 106.482C116.662 110.975 117.685 115.619 118.758 120.414C119.831 125.175 120.904 129.802 121.977 134.294C124.558 144.822 126.57 152.517 128.012 157.379C128.347 158.619 128.246 159.609 127.71 160.346C127.207 161.084 126.637 161.453 126 161.453C125.363 161.453 124.776 161.268 124.24 160.899C123.737 160.531 123.284 159.441 122.882 157.63C122.479 155.82 121.826 152.886 120.92 148.829C120.015 144.772 119.043 140.413 118.003 135.753C117.97 135.552 117.936 135.367 117.903 135.2C115.623 135.099 112.404 135.049 108.247 135.049C103.351 135.049 99.613 135.116 97.0312 135.25C96.9977 135.451 96.9642 135.652 96.9307 135.854C94.8854 145.711 93.3766 153.339 92.4043 158.737C92.069 160.447 91.1805 161.302 89.7388 161.302C88.23 161.302 87.3079 160.564 86.9727 159.089C86.8721 158.653 86.9727 157.966 87.2744 157.027C87.5762 156.088 88.012 154.479 88.582 152.199C89.1855 149.885 89.8226 147.253 90.4932 144.303C91.1973 141.319 91.9349 138.066 92.7061 134.546C93.4772 131.025 94.2651 127.404 95.0698 123.683C95.8745 119.961 96.6792 116.222 97.4839 112.467C98.2886 108.679 99.0597 105.024 99.7974 101.503C100.535 97.9829 101.222 94.6803 101.859 91.5957C102.53 88.5111 103.066 86.0635 103.469 84.2529C104.106 81.0677 105.447 79.4751 107.492 79.4751ZM97.9868 130.573C100.535 130.707 103.972 130.774 108.297 130.774C111.884 130.774 114.751 130.724 116.897 130.623C116.193 127.572 115.489 124.437 114.785 121.218C113.678 116.222 112.622 111.378 111.616 106.684C109.94 99.0055 108.498 92.2663 107.291 86.4658C106.52 90.3216 105.413 95.5688 103.972 102.208C102.094 111.059 100.669 117.798 99.6968 122.425C99.1268 125.208 98.5568 127.924 97.9868 130.573ZM145.966 146.566C144.893 150.723 143.871 154.596 142.898 158.184C141.96 161.771 141.205 164.437 140.635 166.18C140.099 167.957 139.546 169.03 138.976 169.399C138.439 169.801 137.903 170.002 137.366 170.002C136.863 170.002 136.394 169.785 135.958 169.349C135.556 168.913 135.354 168.393 135.354 167.79C135.354 167.22 135.606 166.214 136.109 164.772C136.645 163.33 137.417 160.933 138.422 157.58C139.462 154.194 140.551 150.472 141.691 146.415C142.831 142.358 143.988 138.066 145.162 133.54C146.369 129.014 147.559 124.437 148.732 119.81C149.906 115.183 151.029 110.623 152.102 106.13C153.208 101.638 154.231 97.3962 155.17 93.4062C157.45 83.8841 158.942 77.4969 159.646 74.2446C159.881 73.2052 160.3 72.4341 160.903 71.9312C161.507 71.4282 162.094 71.1768 162.664 71.1768C163.267 71.1768 163.804 71.3947 164.273 71.8306C164.776 72.2664 165.027 72.7526 165.027 73.2891C165.027 74.2614 164.759 75.4181 164.223 76.7593C163.72 78.1004 162.999 80.3468 162.06 83.4985C161.155 86.6167 160.182 90.1037 159.143 93.9595C158.137 97.8153 157.081 101.939 155.975 106.332C154.868 110.724 153.745 115.217 152.605 119.81C151.499 124.37 150.375 128.93 149.235 133.49C148.129 138.016 147.039 142.375 145.966 146.566ZM177.852 158.234C175.84 158.234 174.834 157.345 174.834 155.568C174.834 154.294 175.488 153.389 176.796 152.853C178.104 152.283 179.612 151.612 181.322 150.841C183.066 150.036 184.943 149.164 186.955 148.226C189 147.253 191.113 146.231 193.292 145.158C195.471 144.085 197.55 143.029 199.528 141.989C202.177 140.581 204.323 139.34 205.966 138.268C192.756 130.824 183.083 125.862 176.947 123.381C175.572 122.811 174.885 122.04 174.885 121.067C174.885 120.062 175.136 119.274 175.639 118.704C176.176 118.134 176.796 117.849 177.5 117.849C178.238 117.849 178.958 118.033 179.663 118.402C191.498 125.711 201.657 131.327 210.14 135.25C211.012 135.652 211.682 136.038 212.152 136.407C212.621 136.742 212.856 137.262 212.856 137.966C212.856 138.67 212.621 139.206 212.152 139.575C211.682 139.91 210.995 140.313 210.09 140.782C209.185 141.218 207.994 141.822 206.519 142.593C205.077 143.364 203.501 144.219 201.792 145.158C200.082 146.097 198.271 147.086 196.36 148.125C194.482 149.164 192.588 150.221 190.677 151.293C188.632 152.467 186.251 153.842 183.535 155.417C180.819 156.993 179.277 157.865 178.908 158.033C178.573 158.167 178.221 158.234 177.852 158.234Z" fill="white"/>
<defs>
<linearGradient id="paint0_linear_1022_857" x1="-116" y1="76" x2="252" y2="161" gradientUnits="userSpaceOnUse">
<stop stop-color="#1745A9"/>
<stop offset="1" stop-color="#A019DF"/>
</linearGradient>
</defs>
</svg>
