<svg width="180" height="124" viewBox="0 0 180 124" fill="none" xmlns="http://www.w3.org/2000/svg">
<path d="M41.0649 91.6187C41.0649 92.591 40.7799 93.3621 40.21 93.9321C39.6735 94.5021 39.0365 94.7871 38.2988 94.7871C37.5947 94.7871 36.4045 94.2842 34.728 93.2783C33.0516 92.2389 30.7884 90.8978 27.9385 89.2549C25.0885 87.612 22.3392 86.0529 19.6904 84.5776C13.957 81.3924 9.98389 79.2969 7.771 78.291C5.59163 77.2516 4.26725 76.5643 3.79785 76.229C3.32845 75.8602 3.09375 75.3237 3.09375 74.6196C3.09375 73.9155 3.31169 73.3958 3.74756 73.0605C4.18343 72.6917 5.27311 72.1385 7.0166 71.4009C8.76009 70.6632 11.0736 69.5736 13.957 68.1318C16.8405 66.6566 19.6401 65.1478 22.356 63.6055C27.8211 60.5544 32.314 57.7547 35.8345 55.2065C36.6056 54.6366 37.3433 54.3516 38.0474 54.3516C38.785 54.3516 39.4723 54.5863 40.1094 55.0557C40.7799 55.5251 41.1152 56.1621 41.1152 56.9668C41.1152 58.3415 40.4447 59.3809 39.1035 60.085C37.7624 60.7891 36.3542 61.5099 34.8789 62.2476C33.4036 62.9517 31.7775 63.7396 30.0005 64.6113C28.257 65.4831 26.4129 66.4051 24.4683 67.3774C22.5571 68.3162 20.6292 69.3053 18.6846 70.3447C15.7005 71.887 12.9847 73.3455 10.5371 74.7202C23.7474 82.13 33.236 86.9749 39.0029 89.2549C40.3776 89.8249 41.0649 90.6128 41.0649 91.6187ZM71.4922 15.4751C72.2969 15.4751 73.0345 15.8104 73.7051 16.481C74.3757 17.1515 74.8953 18.5597 75.2642 20.7056C75.6665 22.8179 76.2533 25.8522 77.0244 29.8086C77.8291 33.765 78.7176 37.9896 79.6899 42.4824C80.6623 46.9753 81.6849 51.619 82.7578 56.4136C83.8307 61.1746 84.9036 65.8016 85.9766 70.2944C88.5583 80.8224 90.57 88.5173 92.0117 93.3789C92.347 94.6195 92.2464 95.6086 91.71 96.3462C91.207 97.0838 90.637 97.4526 90 97.4526C89.363 97.4526 88.7762 97.2682 88.2397 96.8994C87.7368 96.5306 87.2842 95.4409 86.8818 93.6304C86.4795 91.8198 85.8257 88.8861 84.9204 84.8291C84.0151 80.7721 83.0428 76.4134 82.0034 71.7529C81.9699 71.5518 81.9364 71.3674 81.9028 71.1997C79.6229 71.0991 76.4041 71.0488 72.2466 71.0488C67.3514 71.0488 63.613 71.1159 61.0312 71.25C60.9977 71.4512 60.9642 71.6523 60.9307 71.8535C58.8854 81.7109 57.3766 89.3387 56.4043 94.7368C56.069 96.4468 55.1805 97.3018 53.7388 97.3018C52.23 97.3018 51.3079 96.5641 50.9727 95.0889C50.8721 94.653 50.9727 93.9657 51.2744 93.0269C51.5762 92.0881 52.012 90.4787 52.582 88.1987C53.1855 85.8853 53.8226 83.2533 54.4932 80.3027C55.1973 77.3187 55.9349 74.0664 56.7061 70.5459C57.4772 67.0254 58.2651 63.4043 59.0698 59.6826C59.8745 55.9609 60.6792 52.2225 61.4839 48.4673C62.2886 44.6785 63.0597 41.0239 63.7974 37.5034C64.535 33.9829 65.2223 30.6803 65.8594 27.5957C66.5299 24.5111 67.0664 22.0635 67.4688 20.2529C68.1058 17.0677 69.4469 15.4751 71.4922 15.4751ZM61.9868 66.5728C64.535 66.7069 67.9717 66.7739 72.2969 66.7739C75.8844 66.7739 78.7511 66.7236 80.897 66.623C80.1929 63.5719 79.4888 60.437 78.7847 57.2183C77.6782 52.2225 76.6221 47.3776 75.6162 42.6836C73.9398 35.0055 72.498 28.2663 71.291 22.4658C70.5199 26.3216 69.4134 31.5688 67.9717 38.2075C66.0941 47.0591 64.6691 53.7983 63.6968 58.4253C63.1268 61.2082 62.5568 63.924 61.9868 66.5728ZM109.966 82.5659C108.893 86.7235 107.871 90.596 106.898 94.1836C105.96 97.7712 105.205 100.437 104.635 102.18C104.099 103.957 103.546 105.03 102.976 105.399C102.439 105.801 101.903 106.002 101.366 106.002C100.863 106.002 100.394 105.785 99.958 105.349C99.5557 104.913 99.3545 104.393 99.3545 103.79C99.3545 103.22 99.606 102.214 100.109 100.772C100.645 99.3302 101.417 96.9329 102.422 93.5801C103.462 90.1937 104.551 86.472 105.691 82.415C106.831 78.3581 107.988 74.0664 109.162 69.54C110.369 65.0137 111.559 60.437 112.732 55.8101C113.906 51.1831 115.029 46.6232 116.102 42.1304C117.208 37.6375 118.231 33.3962 119.17 29.4062C121.45 19.8841 122.942 13.4969 123.646 10.2446C123.881 9.20524 124.3 8.43408 124.903 7.93115C125.507 7.42822 126.094 7.17676 126.664 7.17676C127.267 7.17676 127.804 7.39469 128.273 7.83057C128.776 8.26644 129.027 8.7526 129.027 9.28906C129.027 10.2614 128.759 11.4181 128.223 12.7593C127.72 14.1004 126.999 16.3468 126.06 19.4985C125.155 22.6167 124.182 26.1037 123.143 29.9595C122.137 33.8153 121.081 37.9393 119.975 42.3315C118.868 46.7238 117.745 51.2166 116.605 55.8101C115.499 60.37 114.375 64.9299 113.235 69.4897C112.129 74.0161 111.039 78.3748 109.966 82.5659ZM141.852 94.2339C139.84 94.2339 138.834 93.3454 138.834 91.5684C138.834 90.2943 139.488 89.389 140.796 88.8525C142.104 88.2826 143.612 87.612 145.322 86.8408C147.066 86.0361 148.943 85.1644 150.955 84.2256C153 83.2533 155.113 82.2306 157.292 81.1577C159.471 80.0848 161.55 79.0286 163.528 77.9893C166.177 76.5811 168.323 75.3405 169.966 74.2676C156.756 66.8242 147.083 61.862 140.947 59.3809C139.572 58.8109 138.885 58.0397 138.885 57.0674C138.885 56.0615 139.136 55.2736 139.639 54.7036C140.176 54.1336 140.796 53.8486 141.5 53.8486C142.238 53.8486 142.958 54.033 143.663 54.4019C155.498 61.7111 165.657 67.3271 174.14 71.25C175.012 71.6523 175.682 72.0379 176.152 72.4067C176.621 72.742 176.856 73.2617 176.856 73.9658C176.856 74.6699 176.621 75.2064 176.152 75.5752C175.682 75.9105 174.995 76.3128 174.09 76.7822C173.185 77.2181 171.994 77.8216 170.519 78.5928C169.077 79.3639 167.501 80.2189 165.792 81.1577C164.082 82.0965 162.271 83.0856 160.36 84.125C158.482 85.1644 156.588 86.2205 154.677 87.2935C152.632 88.467 150.251 89.8416 147.535 91.4175C144.819 92.9933 143.277 93.8651 142.908 94.0327C142.573 94.1668 142.221 94.2339 141.852 94.2339Z" fill="white"/>
</svg>
